<svg width="981" height="811" viewBox="0 0 981 811" fill="none" xmlns="http://www.w3.org/2000/svg">
<path d="M229.765 281.627C229.765 281.627 373.269 93.9409 470.116 122.409C566.962 150.877 497.101 259.961 616.394 232.249C735.686 204.537 800.503 276.589 759.898 347.129C719.293 417.668 872.129 416.157 850.187 557.237C828.245 698.316 652.207 785.483 420.684 744.923C189.16 704.111 36.0724 491.735 229.765 281.627Z" fill="#4E7D96" fill-opacity="0.25"/>
<path d="M223.712 564.542C223.712 564.542 346.788 225.699 493.571 342.09C640.101 458.733 761.159 389.201 785.875 508.866C810.591 628.532 125.353 884.239 223.712 564.542Z" fill="#4E7D96" fill-opacity="0.2"/>
<g filter="url(#filter0_f_11_3494)">
<path d="M873.39 408.599C854.222 425.73 819.418 417.92 802.268 398.774C785.118 379.627 786.884 350.404 805.799 333.273C824.967 316.141 854.222 317.905 871.372 336.8C888.522 356.198 892.305 391.72 873.39 408.599Z" fill="#F0F6F9"/>
</g>
<g filter="url(#filter1_f_11_3494)">
<path d="M622.699 183.349C601.06 202.604 561.682 193.851 542.383 172.262C523.084 150.673 524.838 117.608 546.477 98.3526C568.115 79.0973 601.255 80.8477 620.555 102.437C639.854 124.026 644.143 164.093 622.699 183.349Z" fill="#F0F6F9"/>
</g>
<g filter="url(#filter2_f_11_3494)">
<path d="M339.699 388.349C318.06 407.604 278.682 398.851 259.383 377.262C240.084 355.673 241.838 322.608 263.477 303.353C285.115 284.097 318.255 285.848 337.555 307.437C356.854 329.026 361.143 369.093 339.699 388.349Z" fill="#F0F6F9"/>
</g>
<g filter="url(#filter3_f_11_3494)">
<path d="M149.564 669.596C134.684 682.949 107.446 676.902 94.3316 662.039C80.9648 647.175 82.2258 624.501 97.1058 611.149C111.986 597.797 134.684 599.057 148.051 613.92C161.418 628.532 164.444 656.244 149.564 669.596Z" fill="#F0F6F9"/>
</g>
<path d="M506 811C719.182 811 892 804.508 892 796.5C892 788.492 719.182 782 506 782C292.818 782 120 788.492 120 796.5C120 804.508 292.818 811 506 811Z" fill="#F0F6F9"/>
<path d="M553.338 135.955H173.338C170.662 135.955 168.521 138.095 168.521 140.769C168.521 143.444 170.662 145.583 173.338 145.583H553.338C556.014 145.583 558.155 143.444 558.155 140.769C558.155 138.095 556.014 135.955 553.338 135.955Z" fill="#125A82"/>
<path d="M500.352 157.886C518.549 133.281 499.014 128.467 495.535 129.001C492.056 129.536 488.845 135.688 488.845 135.688C488.845 135.688 484.028 132.746 481.887 133.816C480.014 134.885 482.423 152.805 482.423 152.805L460.211 263.262C432.648 278.774 402.408 311.938 394.648 320.763C393.31 322.368 391.169 323.705 389.028 324.24C386.352 325.043 382.338 324.508 378.056 323.438C370.296 321.566 369.761 305.251 369.761 305.251L355.577 301.507V299.367L351.563 300.437L347.549 299.367V301.507L333.634 305.251C333.634 305.251 332.831 321.298 325.338 323.438C321.056 324.508 317.31 325.043 314.366 324.24C312.225 323.705 310.352 322.636 308.746 320.763C300.986 311.938 270.479 278.774 243.183 263.262L220.972 152.805C220.972 152.805 223.38 134.885 221.507 133.816C219.634 132.746 214.549 135.688 214.549 135.688C214.549 135.688 211.606 129.536 207.859 129.001C204.38 128.467 184.845 133.281 203.042 157.886C203.042 157.886 182.972 230.633 203.042 277.436C223.113 324.508 214.549 338.415 269.944 369.974C269.944 369.974 287.338 419.185 301.521 433.895C305 437.639 306.606 460.64 303.127 483.373H347.549H355.577H400.268C396.789 460.64 398.394 437.372 401.873 433.895C416.056 419.185 433.451 369.974 433.451 369.974C488.577 338.683 480.014 324.508 500.352 277.436C520.423 230.633 500.352 157.886 500.352 157.886Z" fill="#FFBF85"/>
<path d="M500.352 157.886C518.549 133.281 499.014 128.467 495.535 129.001C492.056 129.536 488.845 135.688 488.845 135.688C488.845 135.688 484.028 132.746 481.887 133.816C480.014 134.885 482.423 152.805 482.423 152.805L460.211 263.262C432.648 278.774 402.408 311.938 394.648 320.763C393.31 322.368 391.169 323.705 389.028 324.24C386.352 325.043 382.338 324.508 378.056 323.438C370.296 321.566 369.761 305.251 369.761 305.251L355.577 301.507V299.367L351.563 300.437L347.549 299.367V301.507L333.634 305.251C333.634 305.251 332.831 321.298 325.338 323.438C321.056 324.508 317.31 325.043 314.366 324.24C312.225 323.705 310.352 322.636 308.746 320.763C300.986 311.938 270.479 278.774 243.183 263.262L220.972 152.805C220.972 152.805 223.38 134.885 221.507 133.816C219.634 132.746 214.549 135.688 214.549 135.688C214.549 135.688 211.606 129.536 207.859 129.001C204.38 128.467 184.845 133.281 203.042 157.886C203.042 157.886 182.972 230.633 203.042 277.436C223.113 324.508 214.549 338.415 269.944 369.974C269.944 369.974 287.338 419.185 301.521 433.895C305 437.639 306.606 460.64 303.127 483.373H347.549H355.577H400.268C396.789 460.64 398.394 437.372 401.873 433.895C416.056 419.185 433.451 369.974 433.451 369.974C488.577 338.683 480.014 324.508 500.352 277.436C520.423 230.633 500.352 157.886 500.352 157.886Z" fill="#FFBF85"/>
<path d="M257.901 273.157C252.817 269.413 248 266.204 242.916 263.262L220.704 152.805C220.704 152.805 223.113 134.885 221.239 133.816C219.366 132.746 214.282 135.688 214.282 135.688C214.282 135.688 211.338 129.536 207.592 129.001C203.845 128.467 184.577 133.281 202.775 157.886C202.775 157.886 182.704 230.633 202.775 277.436C221.507 320.763 215.62 336.276 257.901 362.753V273.157Z" fill="#FFBF85"/>
<path d="M302.859 483.106C303.127 483.373 303.127 483.373 303.394 483.641H302.859C302.859 483.373 302.859 483.373 302.859 483.106Z" fill="#F79F57"/>
<path d="M378.056 323.438C378.324 323.438 378.324 323.438 378.591 323.438C373.239 334.136 363.873 342.962 352.634 343.497V300.17L355.845 299.367V301.507L369.761 305.251C369.761 305.251 370.296 321.298 378.056 323.438Z" fill="#F79F57"/>
<path d="M381.535 249.889C381.535 249.889 375.648 233.307 353.169 231.435C352.634 231.435 352.099 231.435 351.563 231.435C351.028 231.435 350.493 231.435 349.958 231.435C327.479 233.307 321.592 249.889 321.592 249.889C312.493 253.366 319.183 281.716 319.183 281.716H349.958H351.563H353.169H383.944C383.944 281.716 390.366 253.633 381.535 249.889Z" fill="url(#paint0_linear_11_3494)"/>
<path d="M368.958 258.18C368.958 258.18 365.746 259.25 363.338 259.785C355.577 261.389 347.549 261.389 339.789 259.785C337.38 259.25 333.366 258.18 333.366 258.18C333.366 263.262 326.408 274.494 326.408 274.494V288.134C326.408 301.774 337.648 314.879 351.563 314.879H351.831C365.746 314.879 376.986 301.774 376.986 288.134V274.494C376.718 274.494 368.958 263.262 368.958 258.18Z" fill="#FFBF85"/>
<path d="M370.563 311.938C366.014 317.821 359.056 321.833 351.563 321.833H351.296C343.803 321.833 336.845 317.821 332.296 312.205C332.831 309.798 333.099 307.658 333.099 306.589C337.648 311.67 344.07 315.147 351.028 315.147H351.296C358.521 315.147 364.944 311.67 369.493 306.321C369.761 307.391 370.028 309.53 370.563 311.938Z" fill="#F79F57"/>
<path d="M332.831 281.716C332.831 277.971 329.887 274.762 325.873 274.762C322.127 274.762 318.915 277.704 318.915 281.716C318.915 285.46 321.859 288.669 325.873 288.669C329.887 288.669 332.831 285.46 332.831 281.716Z" fill="#FFBF85"/>
<path d="M384.479 281.716C384.479 277.971 381.535 274.762 377.521 274.762C373.775 274.762 370.563 277.704 370.563 281.716C370.563 285.46 373.507 288.669 377.521 288.669C381.268 288.669 384.479 285.46 384.479 281.716Z" fill="#FFBF85"/>
<path d="M512.127 612.819C508.648 582.597 435.859 513.863 430.239 510.118C425.958 507.176 407.225 490.327 399.732 483.373H303.127C295.634 490.059 276.901 506.909 272.62 510.118C267.268 513.863 194.211 582.597 190.732 612.819C187.254 643.041 243.986 769.278 243.986 769.278H266.732C266.732 769.278 268.606 673.798 268.338 639.564C268.338 639.564 322.662 603.993 351.563 570.829C380.732 603.993 434.789 639.564 434.789 639.564C434.253 673.53 436.394 769.278 436.394 769.278H459.141C458.873 769.545 515.606 643.041 512.127 612.819Z" fill="#0F3854"/>
<path d="M410.437 303.914C402.944 311.403 397.324 317.554 394.648 320.763C393.31 322.368 391.169 323.705 389.028 324.24C386.352 325.043 382.606 324.508 378.592 323.438C373.239 334.403 363.07 343.497 351.563 343.497C340.056 343.497 330.155 334.403 324.535 323.438C320.521 324.508 316.775 325.043 314.099 324.24C311.958 323.705 310.085 322.636 308.479 320.763C305.803 317.554 299.916 311.403 292.69 303.914C288.944 315.682 276.366 343.764 243.451 353.125C250.141 358.474 258.437 363.823 269.408 370.242C269.408 370.242 286.803 419.453 300.986 434.162C304.465 437.639 306.07 460.64 302.592 483.373C302.859 483.641 302.859 483.641 303.127 483.908H329.085H373.507H399.465C399.732 483.908 399.732 483.641 400 483.373C396.789 460.64 398.127 437.907 401.606 434.162C415.789 419.453 433.183 370.242 433.183 370.242C444.155 364.09 452.718 358.474 459.141 353.125C426.493 343.764 414.183 315.682 410.437 303.914Z" fill="url(#paint1_linear_11_3494)"/>
<path d="M379.394 323.705C379.127 323.705 378.592 323.438 378.324 323.438C378.859 323.438 379.127 323.705 379.394 323.705Z" fill="#F79F57"/>
<path d="M266.732 769.545V793.081H199.831C195.549 793.081 230.873 769.813 244.254 769.545H266.732Z" fill="#4E7D96"/>
<path d="M436.394 769.545V793.081H503.296C507.577 793.081 472.254 769.813 458.873 769.545H436.394Z" fill="#4E7D96"/>
<path d="M325.07 483.641C330.423 467.594 337.916 436.035 318.916 420.255C292.69 398.859 299.916 357.404 275.028 349.648C250.141 341.625 222.042 294.018 211.07 268.343C200.099 242.668 203.577 159.758 202.775 158.154C202.775 158.154 182.704 230.9 202.775 277.704C222.845 324.775 214.282 338.683 269.676 370.242C269.676 370.242 287.07 419.453 301.254 434.162C304.732 437.907 306.338 460.907 302.859 483.641H325.07Z" fill="#FFD0A9"/>
<path d="M303.127 483.641C295.634 490.327 276.901 507.176 272.62 510.386C267.268 514.13 194.211 582.865 190.732 613.087C187.254 643.309 243.986 769.545 243.986 769.545H251.211C239.437 736.916 203.31 634.75 207.859 613.087C213.479 587.411 321.324 493.269 321.324 493.269C321.324 493.269 323.197 489.525 325.07 483.373H303.127V483.641Z" fill="#205A7A"/>
<path d="M318.916 420.255C292.69 398.859 299.916 357.404 275.028 349.648C271.282 348.578 267.535 346.439 263.789 343.497C258.169 347.508 251.479 350.718 243.451 352.857C250.141 358.206 258.437 363.555 269.408 369.974C269.408 369.974 286.803 419.185 300.986 433.895C304.465 437.372 306.07 460.373 302.592 483.106C302.859 483.373 302.859 483.373 303.127 483.641H324.803C330.69 467.594 337.916 435.767 318.916 420.255Z" fill="#FF4F00"/>
<path d="M318.916 420.255C292.69 398.859 299.916 357.404 275.028 349.648C271.282 348.578 267.535 346.439 263.789 343.497C258.169 347.508 251.479 350.718 243.451 352.857C243.718 353.125 243.718 353.125 243.986 353.392C244.521 353.66 244.789 354.195 245.324 354.462C245.859 354.997 246.394 355.265 246.93 355.799C247.465 356.067 247.732 356.602 248.268 356.869C249.07 357.404 249.873 357.939 250.676 358.474C250.944 358.741 251.479 359.009 251.746 359.276C252.817 360.079 253.887 360.614 254.958 361.416C255.493 361.683 255.761 361.951 256.296 362.218C257.099 362.753 257.901 363.288 258.972 363.823C259.507 364.09 260.042 364.358 260.577 364.893C261.38 365.428 262.451 365.963 263.521 366.497C264.056 366.765 264.592 367.032 264.859 367.3C266.197 368.102 267.803 368.904 269.408 369.974C269.408 369.974 273.69 382.277 279.845 396.452C280.113 397.254 280.648 398.324 280.916 399.126C281.718 400.999 282.521 402.603 283.324 404.475C284.127 406.348 284.93 408.22 286 409.824C288.944 415.976 292.423 422.127 295.634 426.941C296.169 427.744 296.437 428.278 296.972 428.813C298.31 430.686 299.648 432.558 300.986 433.895L301.254 434.162C301.254 434.162 301.521 434.43 301.521 434.697C301.521 434.697 301.521 434.697 301.521 434.965C301.521 435.232 301.789 435.232 301.789 435.5V435.767C301.789 436.035 301.789 436.035 302.056 436.302V436.569C302.056 436.837 302.056 436.837 302.324 437.104C302.324 437.104 302.324 437.372 302.324 437.639C302.324 437.907 302.324 437.907 302.592 438.174C302.592 438.442 302.592 438.442 302.592 438.709C302.592 438.976 302.592 438.976 302.592 439.244C302.592 439.511 302.592 439.511 302.592 439.779C302.592 440.046 302.592 440.046 302.592 440.314C302.592 440.581 302.592 440.849 302.592 441.116C302.592 441.384 302.592 441.384 302.592 441.651C302.592 441.918 302.592 442.186 302.592 442.453C302.592 442.721 302.592 442.721 302.592 442.988C302.592 443.256 302.592 443.523 302.592 443.791C302.592 444.058 302.592 444.058 302.592 444.326C302.592 444.593 302.592 445.128 302.592 445.395V445.663C302.592 445.93 302.592 446.465 302.592 447V447.267C302.592 447.802 302.592 448.07 302.592 448.605V448.872C302.592 449.407 302.592 449.942 302.592 450.209C302.592 450.744 302.592 451.279 302.592 451.814C302.592 452.349 302.592 452.884 302.592 453.419C302.859 462.245 302.324 472.675 300.718 483.373C300.986 483.641 300.986 483.641 301.254 483.908H325C332.761 467.594 337.916 435.767 318.916 420.255Z" fill="#396D89"/>
<path d="M469.042 273.494C475.465 261.459 482.422 152.072 482.422 152.072L460.211 262.529C432.648 278.041 402.408 311.205 394.648 320.031C393.31 321.636 391.169 322.973 389.028 323.508C386.352 324.31 382.338 323.775 378.056 322.705C374.042 321.636 371.901 316.821 370.831 312.275L351.563 343.032C351.563 343.032 372.437 351.857 392.775 335.543C413.113 318.694 462.62 285.53 469.042 273.494Z" fill="#F79F57"/>
<path d="M392.775 336.008C398.662 331.194 407.225 324.775 416.592 318.089C413.648 312.472 411.507 307.391 410.437 303.914C402.944 311.403 397.324 317.554 394.648 320.763C393.31 322.368 391.169 323.705 389.028 324.24C386.352 325.043 382.606 324.508 378.592 323.438C373.239 334.403 363.07 343.497 351.563 343.497C351.563 343.497 372.437 352.323 392.775 336.008Z" fill="#396D89"/>
<path d="M112.324 129.536H101.887C98.6761 129.536 96 132.211 96 135.42V154.142C96 157.351 98.6761 160.026 101.887 160.026H112.324C113.394 160.026 114.197 159.223 114.197 158.154V131.409C114.197 130.339 113.394 129.536 112.324 129.536Z" fill="#0F3854"/>
<path d="M175.746 83H147.113C144.169 83 141.761 85.4071 141.761 88.349V199.073C141.761 202.015 144.169 204.422 147.113 204.422H176.014C178.958 204.422 181.366 202.015 181.366 199.073V88.349C181.366 85.4071 178.958 83 175.746 83Z" fill="#125A82"/>
<path d="M136.944 90.7561H111.789C109.113 90.7561 106.972 92.8957 106.972 95.5702V192.12C106.972 194.794 109.113 196.934 111.789 196.934H136.944C139.62 196.934 141.761 194.794 141.761 192.12V95.5702C141.493 92.8957 139.352 90.7561 136.944 90.7561Z" fill="#125A82"/>
<path d="M181.366 110.815V88.349C181.366 85.4071 178.958 83 176.014 83H147.113C144.169 83 141.761 85.4071 141.761 88.349V110.815H181.366Z" fill="#0F3854"/>
<path d="M141.493 110.815V95.5702C141.493 92.8957 139.352 90.7561 136.676 90.7561H111.789C109.113 90.7561 106.972 92.8957 106.972 95.5702V110.815H141.493Z" fill="#0F3854"/>
<path d="M141.493 180.085V199.073C141.493 202.015 143.901 204.423 146.845 204.423H175.746C178.69 204.423 181.099 202.015 181.099 199.073V180.085H141.493Z" fill="#0F3854"/>
<path d="M106.972 180.085V192.12C106.972 194.794 109.113 196.934 111.789 196.934H136.944C139.62 196.934 141.761 194.794 141.761 192.12V180.085H106.972Z" fill="#0F3854"/>
<path d="M136.944 90.7561H134V196.934H136.944C139.62 196.934 141.761 194.794 141.761 192.12V95.5702C141.493 92.8957 139.352 90.7561 136.944 90.7561Z" fill="#0F3854"/>
<path d="M614.62 157.886H625.056C628.268 157.886 630.944 155.212 630.944 152.002V133.281C630.944 130.071 628.268 127.397 625.056 127.397H614.62C613.549 127.397 612.746 128.199 612.746 129.269V156.014C612.746 157.084 613.549 157.886 614.62 157.886Z" fill="#0F3854"/>
<path d="M550.93 204.422H579.831C582.775 204.422 585.183 202.015 585.183 199.073V88.349C585.183 85.4071 582.775 83 579.831 83H550.93C547.986 83 545.577 85.4071 545.577 88.349V199.073C545.577 202.015 547.986 204.422 550.93 204.422Z" fill="#125A82"/>
<path d="M590 196.666H615.155C617.831 196.666 619.972 194.527 619.972 191.852V95.5702C619.972 92.8957 617.831 90.7561 615.155 90.7561H590C587.324 90.7561 585.183 92.8957 585.183 95.5702V192.12C585.183 194.794 587.324 196.666 590 196.666Z" fill="#125A82"/>
<path d="M545.577 176.875V199.341C545.577 202.283 547.986 204.69 550.93 204.69H579.831C582.775 204.69 585.183 202.283 585.183 199.341V176.875H545.577Z" fill="#0F3854"/>
<path d="M585.183 176.875V192.12C585.183 194.794 587.324 196.934 590 196.934H615.155C617.831 196.934 619.972 194.794 619.972 192.12V176.875H585.183Z" fill="#0F3854"/>
<path d="M585.183 107.338V88.349C585.183 85.4071 582.775 83 579.831 83H550.93C547.986 83 545.577 85.4071 545.577 88.349V107.338H585.183Z" fill="#0F3854"/>
<path d="M619.704 107.338V95.5702C619.704 92.8957 617.563 90.7561 614.887 90.7561H589.732C587.056 90.7561 584.916 92.8957 584.916 95.5702V107.605H619.704V107.338Z" fill="#0F3854"/>
<path d="M590 196.666H592.944V90.7561H590C587.324 90.7561 585.183 92.8957 585.183 95.5702V192.12C585.183 194.794 587.324 196.666 590 196.666Z" fill="#0F3854"/>
<g opacity="0.27">
<path opacity="0.27" d="M585.183 115.896H545.577V144.781H585.183H619.704V115.896H585.183Z" fill="white"/>
<path opacity="0.27" d="M585.183 154.677H545.577V169.921H585.183H619.704V154.677H585.183Z" fill="white"/>
</g>
<g opacity="0.27">
<path opacity="0.27" d="M146.577 115.896H106.972V144.781H146.577H181.366V115.896H146.577Z" fill="white"/>
<path opacity="0.27" d="M146.577 154.677H106.972V169.921H146.577H181.366V154.677H146.577Z" fill="white"/>
</g>
<path d="M452.183 629.669C440.676 614.156 351.563 571.097 351.563 571.097C380.732 604.261 434.789 639.832 434.789 639.832C434.254 673.263 436.127 765.533 436.394 769.278H436.662C436.394 769.545 463.69 645.181 452.183 629.669Z" fill="#04273A"/>
<path d="M708.282 477.489C708.282 477.489 650.211 573.771 668.408 613.087C686.605 652.669 812.113 763.929 812.113 763.929L835.662 758.312L746.817 623.25C746.817 623.25 804.887 540.875 789.366 485.245L708.282 477.489Z" fill="#0F3854"/>
<path d="M791.507 494.606C789.901 513.595 776.521 605.331 679.648 630.471C675.098 624.32 671.352 618.971 669.211 614.424C668.944 611.215 668.944 608.54 668.944 606.133C668.944 606.133 791.507 578.586 789.901 492.199L791.239 491.664C790.972 492.734 791.239 493.804 791.507 494.606Z" fill="#04273A"/>
<path d="M835.93 758.312L841.282 781.046L775.986 796.558C771.972 797.627 800.873 766.871 813.718 763.661L835.93 758.312Z" fill="#4E7D96"/>
<path d="M684.732 770.348V793.883H617.831C613.549 793.883 648.873 770.615 662.254 770.348H684.732Z" fill="#4E7D96"/>
<path d="M788.831 482.036L701.324 481.234L695.169 485.78C687.676 492.467 668.944 509.316 664.662 512.525C659.31 516.27 606.324 541.677 591.873 578.318C580.901 606.668 662.254 770.615 662.254 770.615H685C685 770.615 669.479 640.367 668.944 606.4C668.676 606.133 800.873 576.446 788.831 482.036Z" fill="#125A82"/>
<path d="M601.775 587.411C603.648 566.015 660.38 531.782 677.507 520.014C690.084 511.188 714.169 491.397 726.211 481.501L701.056 481.234L694.901 485.78C687.408 492.467 668.676 509.316 664.394 512.525C659.042 516.27 606.056 541.677 591.606 578.318C580.634 606.668 661.986 770.615 661.986 770.615C661.986 770.615 600.169 608.807 601.775 587.411Z" fill="#2B7EA3"/>
<path d="M667.44 361.072C670.553 341.974 657.586 323.97 638.476 320.858C619.367 317.747 601.352 330.707 598.239 349.805C595.125 368.903 608.093 386.908 627.202 390.019C646.312 393.131 664.327 380.171 667.44 361.072Z" fill="#04273A"/>
<path d="M662.022 362.595C666.029 343.663 653.922 325.068 634.979 321.063C616.036 317.057 597.431 329.158 593.423 348.09C589.416 367.022 601.523 385.616 620.466 389.621C639.409 393.627 658.014 381.526 662.022 362.595Z" fill="#0F3854"/>
<path d="M639.507 355.532C639.507 361.951 634.155 367.3 627.732 367.3C621.31 367.3 615.958 361.951 615.958 355.532C615.958 349.113 621.31 343.764 627.732 343.764C634.155 343.497 639.507 348.846 639.507 355.532Z" fill="#1981AF"/>
<path d="M735.845 315.147C687.141 292.681 686.07 358.206 686.07 358.206C665.732 371.312 666.803 401.266 666.803 401.266C666.803 401.266 628.803 366.765 626.394 363.823L614.887 369.172C614.887 369.172 616.493 372.114 618.901 376.928L617.831 377.998L623.183 384.417C635.225 406.347 657.972 444.058 674.831 448.337C698.916 454.489 711.493 424.267 711.493 424.267L719.521 400.731C747.62 391.37 763.944 328.252 735.845 315.147Z" fill="#FFBF85"/>
<path d="M693.831 445.663C688.746 448.872 682.324 450.477 674.831 448.605C657.704 444.325 634.958 406.615 622.915 384.684L617.831 378.265L618.901 377.195C616.493 372.381 614.887 369.439 614.887 369.439L616.225 368.904C617.296 369.439 619.169 371.579 621.31 375.858C643.254 417.046 675.901 437.104 682.859 435.767C688.479 434.697 687.944 392.173 687.944 392.173L688.479 392.708C687.676 406.882 690.62 427.744 693.831 445.663Z" fill="#F79F57"/>
<path d="M634.554 377.585C639.529 358.885 628.395 339.695 609.685 334.722C590.974 329.749 571.773 340.877 566.797 359.576C561.821 378.276 572.955 397.467 591.666 402.44C610.376 407.412 629.578 396.285 634.554 377.585Z" fill="#04273A"/>
<path d="M609.111 400.692C626.974 393.227 635.399 372.703 627.929 354.851C620.46 336.999 599.924 328.579 582.062 336.044C564.199 343.509 555.774 364.033 563.243 381.885C570.713 399.737 591.249 408.158 609.111 400.692Z" fill="#0F3854"/>
<path d="M623.451 347.241C627.465 352.323 629.873 358.741 630.408 365.695L592.676 403.673C585.718 403.138 579.563 400.464 574.211 396.452L623.451 347.241Z" fill="url(#paint2_linear_11_3494)"/>
<path d="M620.775 344.032L571 393.777C565.648 388.428 561.901 381.475 560.831 373.719L600.704 333.868C608.465 334.938 615.422 338.415 620.775 344.032Z" fill="url(#paint3_linear_11_3494)"/>
<path d="M595.62 380.137C602.123 380.137 607.394 374.869 607.394 368.37C607.394 361.87 602.123 356.602 595.62 356.602C589.117 356.602 583.845 361.87 583.845 368.37C583.845 374.869 589.117 380.137 595.62 380.137Z" fill="#1981AF"/>
<path d="M706.676 317.019C706.676 317.019 706.408 318.089 706.141 319.961C703.465 331.461 692.225 372.916 689.817 384.417C684.197 410.627 701.592 481.501 701.592 481.501L789.099 482.303C789.099 482.303 770.901 423.464 785.62 391.905C807.028 345.904 791.775 284.925 730.493 296.96L706.676 317.019Z" fill="url(#paint4_linear_11_3494)"/>
<path d="M666.535 271.285C666.535 271.285 650.479 265.401 648.873 254.168C647.268 242.935 657.437 240.528 657.437 240.528C657.437 240.528 689.549 219.667 709.084 228.76C728.62 237.854 735.577 276.099 723.803 290.809C712.831 304.716 666.535 271.285 666.535 271.285Z" fill="url(#paint5_linear_11_3494)"/>
<path d="M666.535 271.285C666.535 271.285 676.437 319.694 703.732 303.112L708.549 315.682L728.887 298.298L720.591 280.646C720.056 279.843 719.789 278.774 720.056 277.704C720.591 274.494 721.93 267.808 717.915 262.727C714.437 258.447 708.282 259.785 706.676 266.738C706.676 266.738 695.972 263.529 691.958 258.982C691.69 258.982 675.366 271.285 666.535 271.285Z" fill="#FFBF85"/>
<path d="M716.577 308.728C715.775 307.391 714.972 306.054 714.169 304.716C710.958 298.832 715.239 285.192 713.634 288.669C709.352 298.298 703.732 303.112 703.732 303.112L708.549 315.682L716.577 308.728Z" fill="#F79F57"/>
<path d="M697.226 506.293C710.916 492.611 710.916 470.427 697.226 456.745C683.536 443.063 661.34 443.063 647.649 456.745C633.959 470.427 633.959 492.611 647.65 506.293C661.34 519.975 683.536 519.975 697.226 506.293Z" fill="#04273A"/>
<path d="M701.876 487.016C704.99 467.918 692.022 449.913 672.913 446.802C653.803 443.69 635.788 456.65 632.675 475.748C629.562 494.847 642.529 512.851 661.639 515.963C680.748 519.074 698.763 506.114 701.876 487.016Z" fill="#0F3854"/>
<path d="M667.338 493.269C673.841 493.269 679.113 488 679.113 481.501C679.113 475.002 673.841 469.733 667.338 469.733C660.835 469.733 655.563 475.002 655.563 481.501C655.563 488 660.835 493.269 667.338 493.269Z" fill="#1981AF"/>
<path d="M732.366 433.895C732.366 433.895 723.268 401.801 731.028 377.463C731.028 377.463 694.901 311.67 749.76 297.228C781.338 288.937 811.042 349.113 794.718 375.591C794.718 375.591 803.282 428.278 786.69 449.942C786.69 449.942 738.789 482.303 679.38 493.536L674.563 478.827C674.296 478.827 697.845 455.826 732.366 433.895Z" fill="#FFBF85"/>
<path d="M665.41 519.287C679.1 505.605 679.1 483.421 665.41 469.739C651.72 456.057 629.524 456.057 615.833 469.739C602.143 483.421 602.143 505.605 615.833 519.287C629.524 532.969 651.72 532.969 665.41 519.287Z" fill="#04273A"/>
<path d="M669.553 502.584C673.977 483.745 662.282 464.888 643.433 460.467C624.583 456.045 605.715 467.733 601.291 486.572C596.867 505.411 608.562 524.268 627.412 528.689C646.262 533.11 665.129 521.423 669.553 502.584Z" fill="#0F3854"/>
<path d="M663.324 473.21C667.338 478.292 669.746 484.71 670.282 491.664L632.549 529.375C625.592 528.84 619.437 526.165 614.085 522.421L663.324 473.21Z" fill="url(#paint6_linear_11_3494)"/>
<path d="M660.38 469.733L610.606 519.479C605.253 514.13 601.507 507.176 600.437 499.42L640.31 459.57C648.338 460.907 655.296 464.384 660.38 469.733Z" fill="url(#paint7_linear_11_3494)"/>
<path d="M647.268 494.606C647.268 501.025 641.915 506.374 635.493 506.374C629.07 506.374 623.718 501.025 623.718 494.606C623.718 488.187 629.07 482.838 635.493 482.838C641.915 482.571 647.268 487.92 647.268 494.606Z" fill="#1981AF"/>
<path d="M679.113 493.536C738.521 482.303 786.423 449.942 786.423 449.942C803.282 428.278 794.451 375.591 794.451 375.591C810.775 348.846 781.07 288.669 749.493 297.228C746.549 298.03 743.606 299.1 741.197 300.17C758.592 303.379 790.437 338.683 775.986 369.707C775.986 369.707 788.028 432.825 774.648 444.593C762.338 455.826 679.113 493.536 679.113 493.536Z" fill="#F79F57"/>
<path d="M696.507 459.57C706.141 451.814 718.183 442.721 732.366 433.895C732.366 433.895 723.268 401.801 731.028 377.463C731.028 377.463 714.169 346.706 720.859 322.636C720.324 321.833 720.056 321.566 720.056 321.566C720.056 321.566 708.282 355.799 718.986 377.195C718.986 377.195 710.155 411.429 718.986 427.476L694.901 452.884C695.704 455.024 695.972 457.431 696.507 459.57Z" fill="#396D89"/>
<defs>
<filter id="filter0_f_11_3494" x="695.436" y="226.454" width="285.556" height="286.618" filterUnits="userSpaceOnUse" color-interpolation-filters="sRGB">
<feFlood flood-opacity="0" result="BackgroundImageFix"/>
<feBlend mode="normal" in="SourceGraphic" in2="BackgroundImageFix" result="shape"/>
<feGaussianBlur stdDeviation="47.5" result="effect1_foregroundBlur_11_3494"/>
</filter>
<filter id="filter1_f_11_3494" x="444" y="0" width="278" height="279" filterUnits="userSpaceOnUse" color-interpolation-filters="sRGB">
<feFlood flood-opacity="0" result="BackgroundImageFix"/>
<feBlend mode="normal" in="SourceGraphic" in2="BackgroundImageFix" result="shape"/>
<feGaussianBlur stdDeviation="42.5" result="effect1_foregroundBlur_11_3494"/>
</filter>
<filter id="filter2_f_11_3494" x="161" y="205" width="278" height="279" filterUnits="userSpaceOnUse" color-interpolation-filters="sRGB">
<feFlood flood-opacity="0" result="BackgroundImageFix"/>
<feBlend mode="normal" in="SourceGraphic" in2="BackgroundImageFix" result="shape"/>
<feGaussianBlur stdDeviation="42.5" result="effect1_foregroundBlur_11_3494"/>
</filter>
<filter id="filter3_f_11_3494" x="0.0721436" y="516.9" width="244.396" height="245.096" filterUnits="userSpaceOnUse" color-interpolation-filters="sRGB">
<feFlood flood-opacity="0" result="BackgroundImageFix"/>
<feBlend mode="normal" in="SourceGraphic" in2="BackgroundImageFix" result="shape"/>
<feGaussianBlur stdDeviation="42.5" result="effect1_foregroundBlur_11_3494"/>
</filter>
<linearGradient id="paint0_linear_11_3494" x1="137.044" y1="286.687" x2="219.219" y2="80.59" gradientUnits="userSpaceOnUse">
<stop/>
<stop offset="1" stop-color="#C4C4C4"/>
</linearGradient>
<linearGradient id="paint1_linear_11_3494" x1="351" y1="335" x2="459" y2="596.5" gradientUnits="userSpaceOnUse">
<stop stop-color="#4E7D96"/>
<stop offset="1" stop-opacity="0.76"/>
</linearGradient>
<linearGradient id="paint2_linear_11_3494" x1="568.964" y1="414.252" x2="615.404" y2="368.081" gradientUnits="userSpaceOnUse">
<stop stop-color="white"/>
<stop offset="1" stop-color="white" stop-opacity="0"/>
</linearGradient>
<linearGradient id="paint3_linear_11_3494" x1="552.042" y1="397.232" x2="598.482" y2="351.06" gradientUnits="userSpaceOnUse">
<stop stop-color="white"/>
<stop offset="1" stop-color="white" stop-opacity="0"/>
</linearGradient>
<linearGradient id="paint4_linear_11_3494" x1="689" y1="295" x2="884.5" y2="617.5" gradientUnits="userSpaceOnUse">
<stop stop-color="#4E7D96"/>
<stop offset="1"/>
</linearGradient>
<linearGradient id="paint5_linear_11_3494" x1="439.206" y1="300.892" x2="561.515" y2="35.507" gradientUnits="userSpaceOnUse">
<stop/>
<stop offset="1" stop-color="#C4C4C4"/>
</linearGradient>
<linearGradient id="paint6_linear_11_3494" x1="608.698" y1="540.188" x2="655.138" y2="494.016" gradientUnits="userSpaceOnUse">
<stop stop-color="white"/>
<stop offset="1" stop-color="white" stop-opacity="0"/>
</linearGradient>
<linearGradient id="paint7_linear_11_3494" x1="591.776" y1="523.167" x2="638.216" y2="476.996" gradientUnits="userSpaceOnUse">
<stop stop-color="white"/>
<stop offset="1" stop-color="white" stop-opacity="0"/>
</linearGradient>
</defs>
</svg>
